<svg xmlns="http://www.w3.org/2000/svg" viewBox="0 0 512 512" width="512" height="512">
  <rect width="512" height="512" rx="100" fill="#6B8E23"/>
  <g transform="translate(256, 240)" fill="white">
    <!-- Plate -->
    <ellipse cx="0" cy="30" rx="140" ry="35" fill="rgba(255,255,255,0.3)"/>
    <ellipse cx="0" cy="20" rx="130" ry="90" fill="rgba(255,255,255,0.15)" stroke="white" stroke-width="6"/>
    <ellipse cx="0" cy="20" rx="90" ry="60" fill="rgba(255,255,255,0.1)" stroke="white" stroke-width="4"/>
    <!-- Fork (left) -->
    <g transform="translate(-170, -80) rotate(-20)">
      <rect x="-4" y="0" width="8" height="140" rx="4" fill="white"/>
      <rect x="-4" y="-60" width="3" height="60" rx="1.5" fill="white" transform="translate(-7,0)"/>
      <rect x="-4" y="-60" width="3" height="60" rx="1.5" fill="white"/>
      <rect x="-4" y="-60" width="3" height="60" rx="1.5" fill="white" transform="translate(7,0)"/>
      <rect x="-4" y="-60" width="3" height="60" rx="1.5" fill="white" transform="translate(14,0)"/>
    </g>
    <!-- Knife (right) -->
    <g transform="translate(170, -80) rotate(20)">
      <rect x="-4" y="0" width="8" height="140" rx="4" fill="white"/>
      <path d="M-4,-60 Q-4,-70 4,-70 L4,0 L-4,0 Z" fill="white"/>
      <path d="M4,-70 Q12,-50 4,0" stroke="white" stroke-width="3" fill="none"/>
    </g>
  </g>
  <!-- Steam -->
  <g fill="none" stroke="rgba(255,255,255,0.6)" stroke-width="4" stroke-linecap="round">
    <path d="M220,120 Q230,100 220,80 Q210,60 220,40"/>
    <path d="M256,110 Q266,90 256,70 Q246,50 256,30"/>
    <path d="M292,120 Q302,100 292,80 Q282,60 292,40"/>
  </g>
</svg>
